<?xml version="1.0" encoding="UTF-8"?>
<svg id="Layer_2" data-name="Layer 2" xmlns="http://www.w3.org/2000/svg" viewBox="0 0 426.98 295.84">
  <g id="Layer_1-2" data-name="Layer 1">
    <path d="M426.98,84.53V0H136.9v14.43h-5.77V0H0v110.79c20.49,0,37.11,16.62,37.11,37.16S20.49,185.05,0,185.05v110.79h131.13v-14.42h5.77v14.42h81.63v-105.65h208.45v-84.54h-208.45v-21.12h208.45ZM136.9,269.28h-5.77v-30.34h5.77v30.34ZM136.9,226.81h-5.77v-30.34h5.77v30.34ZM136.9,184.33h-5.77v-30.34h5.77v30.34ZM136.9,141.85h-5.77v-30.34h5.77v30.34ZM136.9,99.38h-5.77v-30.34h5.77v30.34ZM136.9,56.9h-5.77v-30.34h5.77v30.34Z"/>
  </g>
</svg>