<?xml version="1.0" encoding="UTF-8"?>
<svg id="Layer_2" data-name="Layer 2" xmlns="http://www.w3.org/2000/svg" viewBox="0 0 251.53 51.27">
  <g id="Layer_1-2" data-name="Layer 1">
    <g>
      <path d="M251.53,19.2V0h-22.73v2.5h-1V0h-50.27v51.27h50.27v-2.5h1v2.5h22.73v-19.2c-3.56,0-6.44-2.88-6.44-6.43s2.88-6.44,6.44-6.44ZM213.65,36.62h-21.97V14.65h21.97v21.97ZM228.8,46.67h-1v-5.26h1v5.26ZM228.8,39.31h-1v-5.26h1v5.26ZM228.8,31.95h-1v-5.26h1v5.26ZM228.8,24.59h-1v-5.26h1v5.26ZM228.8,17.22h-1v-5.25h1v5.25ZM228.8,9.86h-1v-5.25h1v5.25Z"/>
      <path d="M125.26,0h-50.27v51.27h50.27V0ZM89.14,36.62V14.65h21.97v21.97h-21.97Z"/>
      <path d="M74,14.65V0H23.73v2.5h-1V0H0v19.2c3.55,0,6.43,2.88,6.43,6.44s-2.88,6.43-6.43,6.43v19.2h22.73v-2.5h1v2.5h14.14v-18.31h36.13v-14.65h-36.13v-3.66h36.13ZM23.73,46.67h-1v-5.26h1v5.26ZM23.73,39.31h-1v-5.26h1v5.26ZM23.73,31.95h-1v-5.26h1v5.26ZM23.73,24.59h-1v-5.26h1v5.26ZM23.73,17.22h-1v-5.25h1v5.25ZM23.73,9.86h-1v-5.25h1v5.25Z"/>
      <polygon points="176.53 51.27 176.53 0 126.26 0 126.26 51.27 140.41 51.27 140.41 14.65 144.07 14.65 144.07 51.27 158.72 51.27 158.72 14.65 162.38 14.65 162.38 51.27 176.53 51.27"/>
    </g>
  </g>
</svg>